<svg width="50" height="48" viewBox="0 0 50 48" fill="none" xmlns="http://www.w3.org/2000/svg">
<path d="M24.7555 48C38.4276 48 49.511 37.2548 49.511 24C49.511 10.7452 38.4276 0 24.7555 0C11.0834 0 0 10.7452 0 24C0 37.2548 11.0834 48 24.7555 48Z" fill="#090909"/>
<path d="M11.3277 23.4806L35.1961 14.5586C36.3039 14.1706 37.2715 14.8206 36.9125 16.4446L36.9146 16.4426L32.8505 35.0046C32.5493 36.3206 31.7427 36.6406 30.6143 36.0206L24.4254 31.5986L21.4403 34.3866C21.1102 34.7066 20.8317 34.9766 20.1922 34.9766L20.6316 28.8706L32.1017 18.8246C32.6009 18.3986 31.9903 18.1586 31.3322 18.5826L17.1576 27.2346L11.0471 25.3866C9.72064 24.9786 9.69176 24.1006 11.3277 23.4806Z" fill="white"/>
</svg>
